<svg width="12" height="16" viewBox="0 0 12 16" fill="none" xmlns="http://www.w3.org/2000/svg">
<path d="M6 0.5C4.67392 0.5 3.40215 1.02678 2.46447 1.96447C1.52678 2.90215 1 4.17392 1 5.5C1 10 6 15.25 6 15.25C6 15.25 11 10 11 5.5C11 4.17392 10.4732 2.90215 9.53553 1.96447C8.59785 1.02678 7.32608 0.5 6 0.5Z" stroke="white" stroke-miterlimit="10" stroke-linecap="round" stroke-linejoin="round"/>
<path d="M6 7.5C7.10457 7.5 8 6.60457 8 5.5C8 4.39543 7.10457 3.5 6 3.5C4.89543 3.5 4 4.39543 4 5.5C4 6.60457 4.89543 7.5 6 7.5Z" stroke="white" stroke-miterlimit="10" stroke-linecap="round" stroke-linejoin="round"/>
</svg>
