<svg width="196" height="50" viewBox="0 0 196 50" fill="none" xmlns="http://www.w3.org/2000/svg">
<path fill-rule="evenodd" clip-rule="evenodd" d="M73.083 25.8753H70.1924L64.9481 17.9055C64.7003 17.5752 64.4938 17.2036 64.3286 16.8319H64.2873C64.3286 17.2861 64.3699 17.9468 64.3699 18.8966V25.8753H61.6445V13.1567H64.7416L69.7794 20.8787C70.0272 21.2091 70.2337 21.5807 70.3989 21.9111H70.4402C70.3989 21.333 70.3576 20.7548 70.3576 20.1767V13.1567H73.083V25.8753Z" fill="white"/>
<path fill-rule="evenodd" clip-rule="evenodd" d="M79.361 21.4568V25.834H76.5117V13.1567H81.0128C84.2337 13.1567 85.8029 14.5194 85.8029 17.2036C85.8442 17.7817 85.7203 18.3598 85.4725 18.8966C85.2248 19.4334 84.8944 19.929 84.4402 20.3006C83.5317 21.0852 82.2929 21.4981 80.765 21.4981L79.361 21.4568ZM79.361 15.3453V19.3095H80.4759C82.0038 19.3095 82.7471 18.6488 82.7471 17.3274C82.7471 16.006 82.0038 15.3453 80.4759 15.3866H79.361V15.3453Z" fill="white"/>
<path fill-rule="evenodd" clip-rule="evenodd" d="M98.8093 25.834H95.2167L91.5415 20.3419C91.4176 20.1354 91.2938 19.8877 91.2112 19.6399H91.1699V25.834H88.2793V13.1567H91.1286V19.1444H91.1699C91.2525 18.9792 91.3763 18.7314 91.5415 18.4424L95.0515 13.1567H98.4789L94.0605 19.227L98.8093 25.834Z" fill="white"/>
<path fill-rule="evenodd" clip-rule="evenodd" d="M114.915 25.8753H112.065V18.2359C112.065 17.41 112.107 16.5016 112.189 15.5105H112.107C112.024 16.0886 111.859 16.6254 111.694 17.2036L108.721 25.834H106.367L103.311 17.2861C103.146 16.708 103.022 16.1299 102.898 15.5105H102.816C102.898 16.7493 102.939 17.8643 102.939 18.814V25.834H100.338V13.1567H104.55L107.151 20.6722C107.358 21.2504 107.523 21.8698 107.606 22.4892H107.647C107.771 21.8698 107.936 21.2504 108.142 20.6722L110.744 13.1567H114.832V25.8753H114.915Z" fill="white"/>
<path fill-rule="evenodd" clip-rule="evenodd" d="M123.667 26.1644C121.809 26.1644 120.281 25.545 119.125 24.3475C117.969 23.15 117.391 21.5808 117.391 19.64C117.391 17.6166 117.969 15.9648 119.166 14.6847C120.364 13.4459 121.933 12.7852 123.874 12.7852C125.732 12.7852 127.219 13.4046 128.375 14.6021C129.531 15.7996 130.068 17.4101 130.068 19.3509C130.068 21.3743 129.49 23.0261 128.292 24.2649C127.095 25.545 125.567 26.1644 123.667 26.1644ZM123.791 15.3454C123.337 15.3454 122.841 15.428 122.428 15.6344C122.016 15.8409 121.644 16.13 121.355 16.5016C120.735 17.2862 120.446 18.2773 120.446 19.5161C120.446 20.7549 120.735 21.7872 121.355 22.5305C121.644 22.9022 121.974 23.1912 122.387 23.3564C122.8 23.5629 123.254 23.6455 123.709 23.6455C124.163 23.6455 124.617 23.5629 125.03 23.3977C125.443 23.1912 125.815 22.9435 126.104 22.5718C126.682 21.8698 126.971 20.8375 127.012 19.5574C127.012 18.236 126.723 17.1623 126.145 16.4603C125.856 16.0887 125.526 15.7996 125.113 15.6344C124.7 15.428 124.245 15.3454 123.791 15.3454Z" fill="white"/>
<path fill-rule="evenodd" clip-rule="evenodd" d="M139.98 25.8753H132.547V13.1567H135.355V23.5215H139.98V25.8753Z" fill="white"/>
<path fill-rule="evenodd" clip-rule="evenodd" d="M156.702 25.8753H153.852V18.2359C153.852 17.41 153.894 16.5016 153.976 15.5105H153.894C153.811 16.0886 153.646 16.6254 153.481 17.2036L150.508 25.834H148.154L145.098 17.2861C144.933 16.708 144.809 16.1299 144.685 15.5105H144.603C144.685 16.7493 144.727 17.8643 144.727 18.814V25.834H142.125V13.1567H146.337L148.939 20.6722C149.145 21.2504 149.31 21.8698 149.393 22.4892H149.434C149.558 21.8698 149.723 21.2504 149.93 20.6722L152.531 13.1567H156.619V25.8753H156.702Z" fill="white"/>
<path fill-rule="evenodd" clip-rule="evenodd" d="M171.279 25.8755H168.141L167.232 23.0675H162.607L161.699 25.8755H158.561L163.227 13.1982H166.654L171.279 25.8755ZM166.53 20.8376L165.168 16.5844C165.044 16.2127 165.002 15.8411 164.961 15.4281H164.879C164.837 15.7998 164.796 16.1714 164.672 16.5431L163.268 20.8376H166.53Z" fill="white"/>
<path fill-rule="evenodd" clip-rule="evenodd" d="M172.559 25.4626V22.572C173.055 22.985 173.674 23.3153 174.294 23.5631C174.913 23.7696 175.533 23.8935 176.152 23.8935C176.482 23.8935 176.813 23.8522 177.102 23.8109C177.349 23.7696 177.597 23.687 177.804 23.5218C177.969 23.4392 178.134 23.274 178.217 23.1089C178.299 22.9437 178.341 22.7785 178.341 22.572C178.341 22.3243 178.258 22.0765 178.134 21.9113C177.969 21.7049 177.762 21.4984 177.556 21.3745C177.267 21.2093 176.978 21.0442 176.647 20.879C176.317 20.7138 175.945 20.5486 175.533 20.3835C174.665 20.0531 173.881 19.5163 173.261 18.8556C172.766 18.2362 172.477 17.4516 172.518 16.667C172.477 16.0889 172.642 15.5108 172.89 15.0152C173.137 14.5197 173.55 14.0655 174.046 13.7351C174.541 13.4048 175.12 13.1983 175.698 13.0331C176.358 12.868 177.019 12.8267 177.68 12.8267C178.299 12.8267 178.877 12.868 179.497 12.9505C179.992 13.0331 180.488 13.157 180.942 13.3222V16.0063C180.736 15.8411 180.488 15.7172 180.24 15.5934C179.992 15.4695 179.703 15.3869 179.455 15.3043C179.208 15.2217 178.919 15.1804 178.63 15.1391C178.382 15.0978 178.134 15.0978 177.845 15.0978C177.556 15.0978 177.226 15.1391 176.937 15.1804C176.689 15.2217 176.441 15.3043 176.235 15.4282C176.069 15.5108 175.904 15.6759 175.78 15.8411C175.698 16.0063 175.615 16.1715 175.615 16.3779C175.615 16.5844 175.656 16.7909 175.78 16.9561C175.904 17.1625 176.069 17.3277 176.276 17.4516C176.524 17.6168 176.771 17.7819 177.06 17.9058C177.391 18.071 177.721 18.1949 178.093 18.3601C178.588 18.5665 179.042 18.773 179.497 19.0621C179.91 19.2685 180.24 19.5576 180.57 19.8879C180.859 20.177 181.107 20.5486 181.272 20.9203C181.438 21.3745 181.52 21.8288 181.52 22.283C181.561 22.9024 181.396 23.5218 181.107 24.0999C180.818 24.5955 180.446 25.0084 179.992 25.2975C179.497 25.6278 178.919 25.8343 178.341 25.9582C177.68 26.082 177.019 26.1646 176.358 26.1646C175.656 26.1646 174.996 26.1233 174.294 25.9994C173.674 25.8756 173.096 25.7104 172.559 25.4626Z" fill="white"/>
<path fill-rule="evenodd" clip-rule="evenodd" d="M195.106 25.8753H192.216V20.6722H186.848V25.8753H183.957V13.1567H186.848V18.2359H192.216V13.1567H195.106V25.8753Z" fill="white"/>
<path fill-rule="evenodd" clip-rule="evenodd" d="M95.5469 31.6566H94.5972V36.6532H95.5882V34.8775C95.7121 35.0427 95.8773 35.2079 96.0837 35.2905C96.2902 35.3731 96.4967 35.4556 96.7031 35.4144C97.7768 35.4144 98.3136 34.5059 98.3136 33.5148C98.3136 32.4825 97.7768 31.5327 96.6206 31.5327C96.4141 31.5327 96.2076 31.574 96.0012 31.6566C95.7947 31.7392 95.6295 31.9044 95.5469 32.1108V31.6566ZM96.4554 32.3173C97.1161 32.3173 97.3226 32.9367 97.3226 33.5148C97.3226 34.1342 97.1161 34.6711 96.4554 34.6711C95.7947 34.6711 95.5882 34.0929 95.5882 33.5148C95.5469 32.8954 95.7947 32.3173 96.4554 32.3173ZM65.9391 32.7715C65.9804 31.8218 66.8476 31.5327 67.6735 31.5327C68.4168 31.5327 69.2839 31.6979 69.2839 32.5651V34.4646C69.2839 34.7536 69.3252 35.0427 69.4078 35.2905H68.3755C68.3342 35.1666 68.3342 35.0427 68.2929 34.9188C68.1277 35.084 67.9212 35.2079 67.7147 35.2905C67.5083 35.3731 67.2605 35.4144 67.054 35.3731C66.3521 35.3731 65.8152 35.0427 65.8152 34.2581C65.8152 33.3084 66.6411 33.1845 67.3431 33.1019C67.9625 33.0193 68.2929 32.978 68.2929 32.6477C68.2929 32.2347 68.0038 32.1521 67.6322 32.1521C67.2605 32.1521 67.0128 32.3173 66.9715 32.6889L65.9391 32.7715ZM68.2929 33.5148C68.1277 33.6387 67.8799 33.68 67.6735 33.68C67.2605 33.7213 66.8476 33.8039 66.8476 34.2581C66.8476 34.6298 67.1366 34.7124 67.467 34.7124C67.5909 34.7124 67.6735 34.7124 67.7973 34.6711C67.9212 34.6298 68.0038 34.5885 68.0864 34.5059C68.169 34.4233 68.2103 34.3407 68.2516 34.2168C68.2929 34.0929 68.2929 34.0104 68.2929 33.8865V33.5148ZM64.0396 35.3318V33.7626H62.6356V35.3318H61.6445V31.6566H62.6356V32.978H64.0396V31.6566H65.0306V35.3318H64.0396ZM70.7705 36.6119C71.4725 36.6119 71.8029 36.3641 72.0093 35.786L73.5372 31.6566H72.5049L71.7203 34.1755L70.8944 31.6566H69.8207L71.1009 35.1253C71.1422 35.2079 71.1422 35.2905 71.1422 35.3731C71.1422 35.4144 71.1422 35.4969 71.1009 35.5382C71.1009 35.5795 71.0596 35.6621 71.0183 35.7034C70.977 35.7447 70.9357 35.786 70.8531 35.786C70.8118 35.8273 70.7292 35.8273 70.6879 35.8273C70.5227 35.8273 70.3163 35.8273 70.1511 35.786V36.6119C70.3576 36.6119 70.564 36.6119 70.7705 36.6119ZM76.3452 31.6566H77.3776V35.3318H76.3452V33.9278C76.0148 34.0104 75.6432 34.0516 75.3129 34.0516C74.3631 34.0516 73.9501 33.5561 73.9501 32.8128V31.6566H74.9412V32.7302C74.9412 33.1432 75.1064 33.3084 75.5193 33.3084C75.8084 33.3084 76.0974 33.2671 76.3452 33.2258V31.6566ZM80.7224 33.8039V35.3318H81.7134V31.6566H80.7224V32.978H79.3184V31.6566H78.286V35.3318H79.3184V33.8039H80.7224ZM84.4801 31.5327C85.6364 31.5327 86.3796 32.3173 86.3796 33.4735C86.3796 34.6711 85.6364 35.4144 84.4801 35.4144C83.3239 35.4144 82.5806 34.6298 82.5806 33.4735C82.5806 32.3173 83.3239 31.5327 84.4801 31.5327ZM84.4801 34.6711C85.1821 34.6711 85.3886 34.0929 85.3886 33.5148C85.3886 32.9367 85.1821 32.3173 84.4801 32.3173C83.7781 32.3173 83.5717 32.8954 83.5717 33.5148C83.5717 34.0929 83.7781 34.6711 84.4801 34.6711ZM89.3115 32.9367H87.1642V33.8039H89.3115V32.9367ZM92.6563 35.3318V32.3999H91.2523V35.3318H90.2613V31.6566H93.6887V35.3318H92.6563ZM100.874 31.5327C102.03 31.5327 102.773 32.3173 102.773 33.4735C102.773 34.6711 102.03 35.4144 100.874 35.4144C99.7176 35.4144 98.9743 34.6298 98.9743 33.4735C98.9743 32.3173 99.7176 31.5327 100.874 31.5327ZM100.874 34.6711C101.576 34.6711 101.782 34.0929 101.782 33.5148C101.782 32.9367 101.576 32.3173 100.874 32.3173C100.172 32.3173 99.9654 32.8954 99.9654 33.5148C100.007 34.0929 100.213 34.6711 100.874 34.6711ZM106.077 32.8954V35.3318H107.027V31.6566H105.912L104.59 34.0929V31.6566H103.599V35.3318H104.714L106.077 32.8954ZM109.38 35.4556C108.389 35.4556 107.729 35.084 107.687 34.1755H108.637C108.678 34.5885 108.885 34.7949 109.38 34.7949C109.835 34.7949 110.082 34.5885 110.082 34.2581C110.082 33.9691 109.876 33.7626 109.422 33.7626H109.05V33.1432H109.38C109.793 33.1432 110 32.978 110 32.7302C110 32.4412 109.793 32.276 109.38 32.276C108.967 32.276 108.72 32.4412 108.72 32.7715H107.77C107.811 31.9044 108.513 31.574 109.422 31.574C110.371 31.574 110.95 31.9869 110.95 32.6064C110.95 32.7715 110.867 32.978 110.743 33.1019C110.619 33.2258 110.454 33.3497 110.289 33.3497C110.495 33.3497 110.702 33.4735 110.867 33.6387C111.032 33.8039 111.073 34.0104 111.073 34.2581C111.156 35.0014 110.454 35.4556 109.38 35.4556ZM115.162 32.6064C115.162 32.0282 114.749 31.6566 114.005 31.6566H111.899V35.3318H114.088C114.79 35.3318 115.327 34.9601 115.327 34.2168C115.327 34.0104 115.285 33.8039 115.162 33.6387C115.038 33.4735 114.873 33.3497 114.666 33.3084C114.831 33.2671 114.955 33.1432 115.038 33.0193C115.12 32.8954 115.162 32.7302 115.162 32.6064ZM114.171 32.6889C114.171 32.978 113.964 33.1019 113.634 33.1019H112.89V32.276H113.592C114.005 32.3173 114.171 32.3999 114.171 32.6889ZM114.336 34.1755C114.336 34.5059 114.171 34.6711 113.675 34.6711H112.932V33.68H113.675C114.088 33.68 114.336 33.8452 114.336 34.1755ZM117.887 31.5327C119.043 31.5327 119.786 32.3173 119.786 33.4735C119.786 34.6711 119.043 35.4144 117.887 35.4144C116.731 35.4144 115.987 34.6298 115.987 33.4735C115.987 32.3173 116.772 31.5327 117.887 31.5327ZM117.887 34.6711C118.589 34.6711 118.795 34.0929 118.795 33.5148C118.795 32.9367 118.589 32.3173 117.887 32.3173C117.185 32.3173 116.979 32.8954 116.979 33.5148C117.02 34.0929 117.226 34.6711 117.887 34.6711ZM123.503 35.3318V36.4054H124.453V34.5472H123.998V31.6153H121.025V32.2347C121.025 33.0193 120.86 33.8039 120.571 34.5059H120.117V36.3641H121.067V35.2905H123.503V35.3318ZM122.016 32.3999H123.007V34.5472H121.603C121.892 33.8865 122.016 33.1845 122.016 32.4825V32.3999ZM127.591 32.9367C127.591 32.8541 127.55 32.7715 127.508 32.6889C127.467 32.6064 127.426 32.5238 127.343 32.4825C127.261 32.4412 127.178 32.3999 127.096 32.3586C127.013 32.3173 126.93 32.3173 126.806 32.3173C126.146 32.3173 125.939 32.978 125.939 33.5148C125.939 34.0517 126.146 34.6711 126.765 34.6711C126.848 34.6711 126.972 34.6711 127.054 34.6298C127.137 34.5885 127.219 34.5472 127.302 34.4646C127.385 34.382 127.426 34.2994 127.467 34.2168C127.508 34.1342 127.55 34.0104 127.55 33.9278H128.541C128.541 34.1342 128.458 34.3407 128.376 34.5472C128.293 34.7536 128.128 34.9188 127.963 35.0427C127.798 35.1666 127.591 35.2905 127.385 35.3731C127.178 35.4556 126.972 35.4556 126.724 35.4556C126.476 35.4556 126.228 35.4144 125.981 35.3318C125.733 35.2492 125.526 35.084 125.361 34.9188C125.196 34.7536 125.031 34.5472 124.948 34.2994C124.866 34.0516 124.824 33.8039 124.824 33.5561C124.824 32.3999 125.526 31.574 126.724 31.574C127.591 31.574 128.417 32.0282 128.458 32.978L127.591 32.9367ZM131.06 35.3318V32.3999H132.257V31.6566H128.83V32.3999H130.027V35.3318H131.06ZM134.983 31.6566C135.726 31.6566 136.139 31.9869 136.139 32.6064C136.139 32.7715 136.098 32.9367 136.015 33.0606C135.932 33.1845 135.809 33.3084 135.643 33.3497C135.85 33.3909 136.015 33.5148 136.139 33.68C136.263 33.8452 136.304 34.0516 136.304 34.2581C136.304 34.9601 135.767 35.3731 135.065 35.3731H132.877V31.6979H134.983V31.6566ZM134.611 33.1432C134.941 33.1432 135.148 33.0193 135.148 32.7302C135.148 32.4412 134.941 32.3173 134.57 32.3173H133.868V33.1432H134.611ZM134.652 34.6711C135.148 34.6711 135.313 34.5059 135.313 34.1755C135.313 33.8452 135.065 33.68 134.611 33.68H133.868V34.6711H134.652ZM138.823 34.6711C138.245 34.6711 137.956 34.382 137.915 33.7213L140.557 33.7626C140.64 32.6064 140.021 31.574 138.782 31.574C138.534 31.574 138.286 31.6153 138.038 31.6979C137.791 31.7805 137.584 31.9457 137.419 32.1108C137.254 32.276 137.089 32.5238 137.006 32.7302C136.924 32.978 136.882 33.2258 136.882 33.4735C136.882 34.6298 137.584 35.4144 138.782 35.4144C139.153 35.4556 139.566 35.3318 139.855 35.084C140.186 34.8362 140.392 34.5059 140.475 34.1342H139.566C139.484 34.2994 139.401 34.4233 139.236 34.5059C139.153 34.6298 138.988 34.6711 138.823 34.6711ZM138.782 32.3173C139.277 32.3173 139.484 32.6064 139.566 33.1019H137.915C137.915 32.978 137.956 32.8954 137.997 32.7715C138.038 32.6889 138.121 32.5651 138.162 32.5238C138.245 32.4412 138.328 32.3999 138.451 32.3586C138.534 32.3173 138.658 32.3173 138.782 32.3173ZM143.778 35.3318V33.8039H142.374V35.3318H141.383V31.6566H142.374V32.978H143.778V31.6566H144.769V35.3318H143.778ZM148.114 33.8039V35.3318H149.147V31.6566H148.114V32.978H146.71V31.6566H145.719V35.3318H146.71V33.8039H148.114ZM150.014 32.7715C150.055 31.8218 150.922 31.5327 151.748 31.5327C152.491 31.5327 153.359 31.6979 153.359 32.5651V34.4646C153.359 34.7536 153.4 35.0427 153.482 35.2905H152.45C152.409 35.1666 152.409 35.0427 152.367 34.9188C152.202 35.084 151.996 35.2079 151.789 35.2905C151.583 35.3731 151.335 35.4144 151.129 35.3731C150.427 35.3731 149.89 35.0427 149.89 34.2581C149.89 33.3084 150.716 33.1845 151.418 33.1019C152.037 33.0193 152.367 32.978 152.367 32.6477C152.367 32.2347 152.037 32.1521 151.707 32.1521C151.376 32.1521 151.087 32.3173 151.046 32.6889L150.014 32.7715ZM152.367 33.5148C152.161 33.6387 151.955 33.68 151.748 33.68C151.335 33.7213 150.922 33.8039 150.922 34.2581C150.922 34.6298 151.211 34.7124 151.542 34.7124C151.665 34.7124 151.748 34.7124 151.872 34.6711C151.996 34.6298 152.078 34.5885 152.161 34.5059C152.244 34.4233 152.285 34.3407 152.326 34.2168C152.367 34.0929 152.367 34.0104 152.367 33.8865V33.5148ZM156.579 33.9691V35.3318H157.612V31.6566H155.465C154.721 31.6566 154.143 32.1108 154.143 32.8128C154.143 33.0606 154.226 33.3497 154.391 33.5148C154.556 33.7213 154.804 33.8452 155.052 33.8865L153.854 35.3318H155.052L156.084 33.9691H156.579ZM155.712 32.3586H156.579V33.2258H155.712C155.299 33.2258 155.134 33.0606 155.134 32.8128C155.134 32.5651 155.299 32.3586 155.712 32.3586ZM160.626 31.6566H161.659V33.1432L162.98 31.6566H164.178L162.774 33.1432L164.343 35.3318H163.104L162.072 33.8039L161.659 34.2168V35.3318H160.626V31.6566ZM168.39 33.4735C168.39 32.276 167.646 31.5327 166.49 31.5327C165.334 31.5327 164.59 32.3173 164.59 33.4735C164.59 34.6298 165.334 35.4144 166.49 35.4144C167.646 35.4556 168.39 34.6711 168.39 33.4735ZM167.398 33.4735C167.398 34.0516 167.192 34.6298 166.49 34.6298C165.788 34.6298 165.582 34.0516 165.582 33.4735C165.582 32.8954 165.788 32.276 166.49 32.276C167.192 32.3173 167.398 32.8954 167.398 33.4735ZM172.602 35.3318V32.6064H172.56L171.858 35.3318H170.908L170.206 32.6064H170.165V35.3318H169.215V31.6566H170.702L171.404 34.3407H171.445L172.147 31.6566H173.634V35.3318H172.602ZM176.937 32.3999V35.3318H177.97V31.6566H174.542V35.3318H175.533V32.3999H176.937ZM178.837 32.7715C178.878 31.8218 179.745 31.5327 180.571 31.5327C181.315 31.5327 182.182 31.6979 182.182 32.5651V34.4646C182.182 34.7536 182.223 35.0427 182.306 35.2905H181.273C181.232 35.1666 181.232 35.0427 181.191 34.9188C181.026 35.084 180.819 35.2079 180.613 35.2905C180.406 35.3731 180.158 35.4144 179.952 35.3731C179.25 35.3731 178.713 35.0427 178.713 34.2581C178.713 33.3084 179.539 33.1845 180.241 33.1019C180.86 33.0193 181.191 32.978 181.191 32.6477C181.191 32.2347 180.86 32.1521 180.53 32.1521C180.2 32.1521 179.911 32.3173 179.869 32.6889L178.837 32.7715ZM181.149 33.5148C180.984 33.6387 180.736 33.68 180.53 33.68C180.117 33.7213 179.704 33.8039 179.704 34.2581C179.704 34.6298 179.993 34.7124 180.324 34.7124C180.447 34.7124 180.53 34.7124 180.654 34.6711C180.778 34.6298 180.86 34.5885 180.943 34.5059C181.026 34.4233 181.067 34.3407 181.108 34.2168C181.149 34.0929 181.149 34.0104 181.149 33.8865V33.5148ZM185.527 33.8039V35.3318H186.559V31.6566H185.527V32.978H184.123V31.6566H183.132V35.3318H184.123V33.8039H185.527ZM189.945 35.3318V32.8954L188.624 35.3318H187.509V31.6566H188.5V34.0929L189.821 31.6566H190.936V35.3318H189.945ZM194.116 33.9691V35.3318H195.107V31.6566H192.959C192.216 31.6566 191.638 32.1108 191.638 32.8128C191.638 33.0606 191.721 33.3497 191.886 33.5148C192.051 33.7213 192.299 33.8452 192.547 33.8865L191.308 35.3318H192.505L193.579 33.9691H194.116ZM193.249 32.3586H194.116V33.2258H193.249C192.836 33.2258 192.67 33.0606 192.67 32.8128C192.67 32.5651 192.836 32.3586 193.249 32.3586Z" fill="white"/>
<path d="M2.71875 21.3744C3.29687 21.5396 2.84263 21.4157 3.50334 21.5396M44.5083 9.44043C45.6645 12.9091 38.5207 16.9146 29.3534 19.5162M14.4875 22.159C13.3313 22.2416 12.1751 22.2829 11.1014 22.2829M26.0912 20.342C24.5633 20.7137 22.9941 21.0028 21.4249 21.2918" stroke="white" stroke-width="0.619451" stroke-miterlimit="22.9256" stroke-linecap="round"/>
<path d="M42.9816 6.96289C43.8488 9.52312 40.091 12.4137 34.3098 14.8088M30.8824 16.0889C29.6849 16.5018 28.4461 16.8735 27.166 17.2038M9.20309 19.8053C8.4185 19.8053 7.63392 19.764 6.89062 19.7227M22.8301 18.2774C20.146 19.1446 18.4942 19.4337 15.3972 19.764" stroke="white" stroke-width="0.619451" stroke-miterlimit="22.9256" stroke-linecap="round"/>
<path d="M40.9554 5.39355C41.8225 7.66473 39.4688 9.56425 35.8349 11.4225M32.7378 12.8265C29.6408 14.024 26.0482 15.1389 22.2079 15.9648M14.775 17.1211C16.2615 16.9972 17.7894 16.7907 19.276 16.5429M5.35992 17.2449C4.65792 17.2036 4.41016 17.1211 4.41016 17.1211M11.8431 17.2449L9.07638 17.3275" stroke="white" stroke-width="0.619451" stroke-miterlimit="22.9256" stroke-linecap="round"/>
<path d="M38.4785 3.70068C39.8825 6.01315 37.1158 7.87138 33.358 9.72961M30.4262 10.9684C29.0222 11.5053 27.453 11.9595 25.8012 12.3724M21.9196 13.2396C20.6808 13.4874 19.4419 13.6525 18.2031 13.8177" stroke="white" stroke-width="0.619451" stroke-miterlimit="22.9256" stroke-linecap="round"/>
<path d="M36.3319 2.29688C37.8185 4.81581 34.0607 7.16957 28.5686 9.11039M25.0173 10.184C23.4069 10.597 21.7551 11.0099 20.062 11.3403M13.8679 12.2487C15.3958 12.0836 16.965 11.8771 18.5342 11.6293M10.4405 12.4965C9.57336 12.5378 8.74748 12.5378 7.96289 12.5378" stroke="white" stroke-width="0.619451" stroke-miterlimit="22.9256" stroke-linecap="round"/>
<path d="M30.7146 0.727539C31.9534 2.13154 28.9389 3.98977 25.6354 5.47635M17.996 7.62364C18.9045 7.49976 20.3085 7.25199 21.2582 7.04552M15.188 7.95399C14.6512 7.99528 13.5363 7.9127 13.082 7.9127" stroke="white" stroke-width="0.619451" stroke-miterlimit="22.9256" stroke-linecap="round"/>
<path d="M27.1229 0.438477C28.1552 1.38824 27.3294 2.13153 25.7189 2.79224M22.2089 4.03106C22.8283 3.82459 23.4064 3.61811 23.9846 3.45294M18.6576 4.65047L17.584 4.81564" stroke="white" stroke-width="0.619451" stroke-miterlimit="22.9256" stroke-linecap="round"/>
<path d="M22.9938 0.438477C24.0675 0.686241 23.2416 1.51212 21.5898 1.6773" stroke="white" stroke-width="0.619451" stroke-miterlimit="22.9256" stroke-linecap="round"/>
<path d="M33.8548 1.38818C34.9697 2.29665 33.4831 4.07229 31.0468 5.51758M24.3984 8.36687C25.8437 7.91264 27.289 7.37581 28.5691 6.7977" stroke="white" stroke-width="0.619451" stroke-miterlimit="22.9256" stroke-linecap="round"/>
<path d="M46.2432 11.5879C47.3581 14.8914 41.4118 18.6492 33.1943 21.4159M28.8997 22.696C27.0828 23.1915 25.2246 23.6044 23.325 23.9761M16.9658 24.9259C15.7269 25.0497 14.4468 25.1323 13.2493 25.1736M9.69801 25.2149C8.95472 25.1736 8.25272 25.1323 7.50943 25.091M5.36214 24.802C4.82532 24.7194 4.2885 24.6368 3.79297 24.5129" stroke="white" stroke-width="0.619451" stroke-miterlimit="22.9256" stroke-linecap="round"/>
<path d="M2.71875 27.2384C3.50334 27.4036 2.71875 27.2384 3.50334 27.4036M47.564 14.396C48.8442 19.8468 32.4091 26.3713 18.4105 27.5688M14.9831 27.8578C13.29 27.9817 11.6383 28.023 10.0278 27.9817" stroke="white" stroke-width="0.619451" stroke-miterlimit="22.9256" stroke-linecap="round"/>
<path d="M1.02539 29.7157L1.6448 29.8809M48.3896 17.4927C48.5961 21.5808 40.0069 25.8341 29.8073 28.3943C28.8988 28.6421 27.9491 28.8485 26.9993 29.055M19.2773 30.3764C17.7495 30.5416 16.2629 30.7068 14.7763 30.7893M10.7708 30.8719C9.40807 30.8719 8.12796 30.7893 6.88914 30.6242" stroke="white" stroke-width="0.619451" stroke-miterlimit="22.9256" stroke-linecap="round"/>
<path d="M49.1742 19.9707C49.3394 23.8523 42.0304 27.8992 32.8218 30.6246M28.1969 31.8634C26.5038 32.235 24.8108 32.6067 23.1177 32.8957M16.3042 33.7216C14.9415 33.8455 13.5788 33.8868 12.2987 33.9281M4.12248 33.2674C3.33789 33.1022 4.12248 33.2674 3.33789 33.1022" stroke="white" stroke-width="0.619451" stroke-miterlimit="22.9256" stroke-linecap="round"/>
<path d="M49.5055 23.8936C48.4732 27.1971 43.2701 30.2528 35.2178 32.8131M28.5694 34.63C24.6052 35.5385 20.4345 36.1992 16.5116 36.4882M8.74831 36.6947C7.83984 36.5708 8.74831 36.6947 7.83984 36.5708" stroke="white" stroke-width="0.619451" stroke-miterlimit="22.9256" stroke-linecap="round"/>
<path d="M49.3409 28.0229C47.9369 30.5006 44.3443 32.5653 39.2651 34.63M32.6168 36.8599C30.9237 37.3554 29.1481 37.7683 27.3725 38.1813M20.0634 39.4201C18.742 39.5853 17.4619 39.7092 16.1818 39.7917M7.51004 39.6266C7.51004 39.6266 7.55133 39.6266 6.89062 39.544" stroke="white" stroke-width="0.619451" stroke-miterlimit="22.9256" stroke-linecap="round"/>
<path d="M48.5544 31.1201C47.0678 33.9281 41.3279 36.8187 33.8537 39.0899M17.4187 42.2282C18.4098 42.1456 19.3595 42.063 20.3506 41.9391M10.9355 42.2695C10.3574 42.2282 10.9355 42.2695 10.3574 42.2282M26.4208 40.9481C27.7835 40.659 29.1462 40.37 30.4263 40.0396" stroke="white" stroke-width="0.619451" stroke-miterlimit="22.9256" stroke-linecap="round"/>
<path d="M44.6726 39.1724C43.7641 40.0395 42.2363 40.9893 40.3367 41.9391M27.3291 46.4401C28.155 46.2336 28.9809 46.0272 29.8068 45.7794M33.6884 44.6232C35.0511 44.1689 36.3312 43.7147 37.4875 43.2192M20.5156 47.4725C21.5067 47.3899 22.4564 47.3073 23.4475 47.1834" stroke="white" stroke-width="0.619451" stroke-miterlimit="22.9256" stroke-linecap="round"/>
<path d="M41.8232 43.1362C40.8734 43.9621 39.3455 44.8706 37.3634 45.6965M30.6325 48.1328C31.9952 47.7199 33.2753 47.3069 34.5141 46.894M27.4941 49.0826L28.4439 48.9174" stroke="white" stroke-width="0.619451" stroke-miterlimit="22.9256" stroke-linecap="round"/>
<path d="M48.1016 34.5059C46.4085 36.3641 45.2936 37.1487 41.8249 38.8417M39.0169 39.998C37.9432 40.4109 36.8283 40.7826 35.6308 41.1542M28.4456 43.0537C27.2068 43.3428 25.968 43.5905 24.6879 43.797M17.4201 44.9945C18.4112 44.912 19.3609 44.8294 20.352 44.7055M11.5977 44.9945C12.2584 45.0771 12.9191 45.1184 13.5798 45.1597" stroke="white" stroke-width="0.619451" stroke-miterlimit="22.9256" stroke-linecap="round"/>
</svg>
