<svg width="13" height="20" viewBox="0 0 13 20" fill="none" xmlns="http://www.w3.org/2000/svg">
<path d="M1 3.125H11.625M1 15H11.625" stroke="white" stroke-width="0.8" stroke-linecap="round" stroke-linejoin="round"/>
<path d="M10.375 0.625H2.25C1.55964 0.625 1 1.18464 1 1.875V18.125C1 18.8154 1.55964 19.375 2.25 19.375H10.375C11.0654 19.375 11.625 18.8154 11.625 18.125V1.875C11.625 1.18464 11.0654 0.625 10.375 0.625Z" stroke="white" stroke-width="0.8" stroke-linecap="round" stroke-linejoin="round"/>
<path d="M6.3125 17.8125C6.65768 17.8125 6.9375 17.5327 6.9375 17.1875C6.9375 16.8423 6.65768 16.5625 6.3125 16.5625C5.96732 16.5625 5.6875 16.8423 5.6875 17.1875C5.6875 17.5327 5.96732 17.8125 6.3125 17.8125Z" stroke="white" stroke-width="0.8" stroke-linecap="round" stroke-linejoin="round"/>
</svg>
