<svg width="16" height="17" viewBox="0 0 16 17" fill="none" xmlns="http://www.w3.org/2000/svg">
<path d="M14.725 12.2502L12.125 10.5502C11.8643 10.385 11.55 10.3266 11.2474 10.3871C10.9448 10.4476 10.6771 10.6224 10.5 10.8752C9.9 11.6002 9.175 12.8002 6.45 10.0752C3.725 7.35016 4.9 6.60016 5.625 6.00016C5.87774 5.82305 6.05252 5.55538 6.11305 5.25277C6.17357 4.95015 6.11518 4.63584 5.95 4.37516L4.25 1.77516C4.025 1.45016 3.725 0.925155 3.025 1.02516C2.325 1.12516 0.5 2.15016 0.5 4.40016C0.5 6.65016 2.275 9.40016 4.7 11.8252C7.125 14.2502 9.875 16.0002 12.1 16.0002C14.325 16.0002 15.4 14.0002 15.475 13.5002C15.55 13.0002 15.05 12.4752 14.725 12.2502Z" stroke="white" stroke-miterlimit="10" stroke-linecap="round" stroke-linejoin="round"/>
</svg>
